<mxfile host="app.diagrams.net" agent="Mozilla/5.0 (Windows NT 10.0; Win64; x64) AppleWebKit/537.36 (KHTML, like Gecko) Chrome/128.0.0.0 Safari/537.36 OPR/114.0.0.0" version="24.8.6">
  <diagram name="Page-1" id="CQnkC_-hyM-EtyBXDqO3">
    <mxGraphModel dx="2603" dy="763" grid="1" gridSize="10" guides="1" tooltips="1" connect="1" arrows="1" fold="1" page="1" pageScale="1" pageWidth="1169" pageHeight="827" math="0" shadow="0">
      <root>
        <mxCell id="0" />
        <mxCell id="1" parent="0" />
        <mxCell id="FwHrozTbba6VwooJ7MBG-2" value="util" style="swimlane;fontStyle=0;childLayout=stackLayout;horizontal=1;startSize=26;fillColor=none;horizontalStack=0;resizeParent=1;resizeParentMax=0;resizeLast=0;collapsible=1;marginBottom=0;whiteSpace=wrap;html=1;swimlaneLine=1;" vertex="1" parent="1">
          <mxGeometry x="120" y="80" width="140" height="138" as="geometry">
            <mxRectangle x="120" y="80" width="60" height="30" as="alternateBounds" />
          </mxGeometry>
        </mxCell>
        <mxCell id="FwHrozTbba6VwooJ7MBG-3" value="- current_date&lt;div&gt;&lt;br&gt;&lt;/div&gt;" style="text;strokeColor=none;fillColor=none;align=left;verticalAlign=top;spacingLeft=4;spacingRight=4;overflow=hidden;rotatable=0;points=[[0,0.5],[1,0.5]];portConstraint=eastwest;whiteSpace=wrap;html=1;" vertex="1" parent="FwHrozTbba6VwooJ7MBG-2">
          <mxGeometry y="26" width="140" height="26" as="geometry" />
        </mxCell>
        <mxCell id="FwHrozTbba6VwooJ7MBG-4" value="- formatted_date" style="text;strokeColor=none;fillColor=none;align=left;verticalAlign=top;spacingLeft=4;spacingRight=4;overflow=hidden;rotatable=0;points=[[0,0.5],[1,0.5]];portConstraint=eastwest;whiteSpace=wrap;html=1;perimeterSpacing=8;" vertex="1" parent="FwHrozTbba6VwooJ7MBG-2">
          <mxGeometry y="52" width="140" height="26" as="geometry" />
        </mxCell>
        <mxCell id="FwHrozTbba6VwooJ7MBG-23" value="" style="line;strokeWidth=1;fillColor=none;align=left;verticalAlign=middle;spacingTop=-1;spacingLeft=3;spacingRight=3;rotatable=0;labelPosition=right;points=[];portConstraint=eastwest;strokeColor=inherit;" vertex="1" parent="FwHrozTbba6VwooJ7MBG-2">
          <mxGeometry y="78" width="140" height="8" as="geometry" />
        </mxCell>
        <mxCell id="FwHrozTbba6VwooJ7MBG-5" value="+ delete_line()" style="text;strokeColor=none;fillColor=none;align=left;verticalAlign=top;spacingLeft=4;spacingRight=4;overflow=hidden;rotatable=0;points=[[0,0.5],[1,0.5]];portConstraint=eastwest;whiteSpace=wrap;html=1;glass=0;rounded=0;" vertex="1" parent="FwHrozTbba6VwooJ7MBG-2">
          <mxGeometry y="86" width="140" height="26" as="geometry" />
        </mxCell>
        <mxCell id="FwHrozTbba6VwooJ7MBG-22" value="+ clear()" style="text;strokeColor=none;fillColor=none;align=left;verticalAlign=top;spacingLeft=4;spacingRight=4;overflow=hidden;rotatable=0;points=[[0,0.5],[1,0.5]];portConstraint=eastwest;whiteSpace=wrap;html=1;" vertex="1" parent="FwHrozTbba6VwooJ7MBG-2">
          <mxGeometry y="112" width="140" height="26" as="geometry" />
        </mxCell>
        <mxCell id="FwHrozTbba6VwooJ7MBG-24" value="constraints" style="swimlane;fontStyle=0;childLayout=stackLayout;horizontal=1;startSize=26;fillColor=none;horizontalStack=0;resizeParent=1;resizeParentMax=0;resizeLast=0;collapsible=1;marginBottom=0;whiteSpace=wrap;html=1;swimlaneLine=1;" vertex="1" parent="1">
          <mxGeometry x="310" y="80" width="160" height="104" as="geometry">
            <mxRectangle x="120" y="80" width="60" height="30" as="alternateBounds" />
          </mxGeometry>
        </mxCell>
        <mxCell id="FwHrozTbba6VwooJ7MBG-25" value="&lt;div&gt;- min_char_length&lt;/div&gt;" style="text;strokeColor=none;fillColor=none;align=left;verticalAlign=top;spacingLeft=4;spacingRight=4;overflow=hidden;rotatable=0;points=[[0,0.5],[1,0.5]];portConstraint=eastwest;whiteSpace=wrap;html=1;" vertex="1" parent="FwHrozTbba6VwooJ7MBG-24">
          <mxGeometry y="26" width="160" height="26" as="geometry" />
        </mxCell>
        <mxCell id="FwHrozTbba6VwooJ7MBG-26" value="- max_char_room_length" style="text;strokeColor=none;fillColor=none;align=left;verticalAlign=top;spacingLeft=4;spacingRight=4;overflow=hidden;rotatable=0;points=[[0,0.5],[1,0.5]];portConstraint=eastwest;whiteSpace=wrap;html=1;perimeterSpacing=8;" vertex="1" parent="FwHrozTbba6VwooJ7MBG-24">
          <mxGeometry y="52" width="160" height="26" as="geometry" />
        </mxCell>
        <mxCell id="FwHrozTbba6VwooJ7MBG-30" value="- blue_badge_length" style="text;strokeColor=none;fillColor=none;align=left;verticalAlign=top;spacingLeft=4;spacingRight=4;overflow=hidden;rotatable=0;points=[[0,0.5],[1,0.5]];portConstraint=eastwest;whiteSpace=wrap;html=1;perimeterSpacing=8;" vertex="1" parent="FwHrozTbba6VwooJ7MBG-24">
          <mxGeometry y="78" width="160" height="26" as="geometry" />
        </mxCell>
        <mxCell id="FwHrozTbba6VwooJ7MBG-31" value="msg" style="swimlane;fontStyle=0;childLayout=stackLayout;horizontal=1;startSize=26;fillColor=none;horizontalStack=0;resizeParent=1;resizeParentMax=0;resizeLast=0;collapsible=1;marginBottom=0;whiteSpace=wrap;html=1;swimlaneLine=1;" vertex="1" parent="1">
          <mxGeometry x="480" y="100" width="290" height="414" as="geometry">
            <mxRectangle x="120" y="80" width="60" height="30" as="alternateBounds" />
          </mxGeometry>
        </mxCell>
        <mxCell id="FwHrozTbba6VwooJ7MBG-32" value="&lt;div&gt;+ caret_exit()&lt;/div&gt;" style="text;strokeColor=none;fillColor=none;align=left;verticalAlign=top;spacingLeft=4;spacingRight=4;overflow=hidden;rotatable=0;points=[[0,0.5],[1,0.5]];portConstraint=eastwest;whiteSpace=wrap;html=1;" vertex="1" parent="FwHrozTbba6VwooJ7MBG-31">
          <mxGeometry y="26" width="290" height="24" as="geometry" />
        </mxCell>
        <mxCell id="FwHrozTbba6VwooJ7MBG-33" value="+ update_cancelled" style="text;strokeColor=none;fillColor=none;align=left;verticalAlign=top;spacingLeft=4;spacingRight=4;overflow=hidden;rotatable=0;points=[[0,0.5],[1,0.5]];portConstraint=eastwest;whiteSpace=wrap;html=1;perimeterSpacing=8;" vertex="1" parent="FwHrozTbba6VwooJ7MBG-31">
          <mxGeometry y="50" width="290" height="26" as="geometry" />
        </mxCell>
        <mxCell id="FwHrozTbba6VwooJ7MBG-34" value="+ print_error_asset_message(message: str)" style="text;strokeColor=none;fillColor=none;align=left;verticalAlign=top;spacingLeft=4;spacingRight=4;overflow=hidden;rotatable=0;points=[[0,0.5],[1,0.5]];portConstraint=eastwest;whiteSpace=wrap;html=1;perimeterSpacing=8;" vertex="1" parent="FwHrozTbba6VwooJ7MBG-31">
          <mxGeometry y="76" width="290" height="26" as="geometry" />
        </mxCell>
        <mxCell id="FwHrozTbba6VwooJ7MBG-43" value="+ print_general_error_message(message: str) " style="text;strokeColor=none;fillColor=none;align=left;verticalAlign=top;spacingLeft=4;spacingRight=4;overflow=hidden;rotatable=0;points=[[0,0.5],[1,0.5]];portConstraint=eastwest;whiteSpace=wrap;html=1;perimeterSpacing=8;" vertex="1" parent="FwHrozTbba6VwooJ7MBG-31">
          <mxGeometry y="102" width="290" height="26" as="geometry" />
        </mxCell>
        <mxCell id="FwHrozTbba6VwooJ7MBG-42" value="+ print_invalid_choice_error()" style="text;strokeColor=none;fillColor=none;align=left;verticalAlign=top;spacingLeft=4;spacingRight=4;overflow=hidden;rotatable=0;points=[[0,0.5],[1,0.5]];portConstraint=eastwest;whiteSpace=wrap;html=1;perimeterSpacing=8;" vertex="1" parent="FwHrozTbba6VwooJ7MBG-31">
          <mxGeometry y="128" width="290" height="26" as="geometry" />
        </mxCell>
        <mxCell id="FwHrozTbba6VwooJ7MBG-41" value="+ print_no_assets_error()" style="text;strokeColor=none;fillColor=none;align=left;verticalAlign=top;spacingLeft=4;spacingRight=4;overflow=hidden;rotatable=0;points=[[0,0.5],[1,0.5]];portConstraint=eastwest;whiteSpace=wrap;html=1;perimeterSpacing=8;" vertex="1" parent="FwHrozTbba6VwooJ7MBG-31">
          <mxGeometry y="154" width="290" height="26" as="geometry" />
        </mxCell>
        <mxCell id="FwHrozTbba6VwooJ7MBG-40" value="+ print_search_assets_error()" style="text;strokeColor=none;fillColor=none;align=left;verticalAlign=top;spacingLeft=4;spacingRight=4;overflow=hidden;rotatable=0;points=[[0,0.5],[1,0.5]];portConstraint=eastwest;whiteSpace=wrap;html=1;perimeterSpacing=8;" vertex="1" parent="FwHrozTbba6VwooJ7MBG-31">
          <mxGeometry y="180" width="290" height="26" as="geometry" />
        </mxCell>
        <mxCell id="FwHrozTbba6VwooJ7MBG-39" value="+ print_asset_name_length_error()" style="text;strokeColor=none;fillColor=none;align=left;verticalAlign=top;spacingLeft=4;spacingRight=4;overflow=hidden;rotatable=0;points=[[0,0.5],[1,0.5]];portConstraint=eastwest;whiteSpace=wrap;html=1;perimeterSpacing=8;" vertex="1" parent="FwHrozTbba6VwooJ7MBG-31">
          <mxGeometry y="206" width="290" height="26" as="geometry" />
        </mxCell>
        <mxCell id="FwHrozTbba6VwooJ7MBG-38" value="+ print_asset_invalid_choice_error() " style="text;strokeColor=none;fillColor=none;align=left;verticalAlign=top;spacingLeft=4;spacingRight=4;overflow=hidden;rotatable=0;points=[[0,0.5],[1,0.5]];portConstraint=eastwest;whiteSpace=wrap;html=1;perimeterSpacing=8;" vertex="1" parent="FwHrozTbba6VwooJ7MBG-31">
          <mxGeometry y="232" width="290" height="26" as="geometry" />
        </mxCell>
        <mxCell id="FwHrozTbba6VwooJ7MBG-37" value="+ print_blue_badge_length_error()" style="text;strokeColor=none;fillColor=none;align=left;verticalAlign=top;spacingLeft=4;spacingRight=4;overflow=hidden;rotatable=0;points=[[0,0.5],[1,0.5]];portConstraint=eastwest;whiteSpace=wrap;html=1;perimeterSpacing=8;" vertex="1" parent="FwHrozTbba6VwooJ7MBG-31">
          <mxGeometry y="258" width="290" height="26" as="geometry" />
        </mxCell>
        <mxCell id="FwHrozTbba6VwooJ7MBG-36" value="+ print_blue_badge_numerical_error()" style="text;strokeColor=none;fillColor=none;align=left;verticalAlign=top;spacingLeft=4;spacingRight=4;overflow=hidden;rotatable=0;points=[[0,0.5],[1,0.5]];portConstraint=eastwest;whiteSpace=wrap;html=1;perimeterSpacing=8;" vertex="1" parent="FwHrozTbba6VwooJ7MBG-31">
          <mxGeometry y="284" width="290" height="26" as="geometry" />
        </mxCell>
        <mxCell id="FwHrozTbba6VwooJ7MBG-47" value="+ print_blue_badge_duplicate_error()" style="text;strokeColor=none;fillColor=none;align=left;verticalAlign=top;spacingLeft=4;spacingRight=4;overflow=hidden;rotatable=0;points=[[0,0.5],[1,0.5]];portConstraint=eastwest;whiteSpace=wrap;html=1;perimeterSpacing=8;" vertex="1" parent="FwHrozTbba6VwooJ7MBG-31">
          <mxGeometry y="310" width="290" height="26" as="geometry" />
        </mxCell>
        <mxCell id="FwHrozTbba6VwooJ7MBG-46" value="+ print_description_length_error()" style="text;strokeColor=none;fillColor=none;align=left;verticalAlign=top;spacingLeft=4;spacingRight=4;overflow=hidden;rotatable=0;points=[[0,0.5],[1,0.5]];portConstraint=eastwest;whiteSpace=wrap;html=1;perimeterSpacing=8;" vertex="1" parent="FwHrozTbba6VwooJ7MBG-31">
          <mxGeometry y="336" width="290" height="26" as="geometry" />
        </mxCell>
        <mxCell id="FwHrozTbba6VwooJ7MBG-45" value="+ print_department_length_error()" style="text;strokeColor=none;fillColor=none;align=left;verticalAlign=top;spacingLeft=4;spacingRight=4;overflow=hidden;rotatable=0;points=[[0,0.5],[1,0.5]];portConstraint=eastwest;whiteSpace=wrap;html=1;perimeterSpacing=8;" vertex="1" parent="FwHrozTbba6VwooJ7MBG-31">
          <mxGeometry y="362" width="290" height="26" as="geometry" />
        </mxCell>
        <mxCell id="FwHrozTbba6VwooJ7MBG-44" value="+ print_room_length_error()" style="text;strokeColor=none;fillColor=none;align=left;verticalAlign=top;spacingLeft=4;spacingRight=4;overflow=hidden;rotatable=0;points=[[0,0.5],[1,0.5]];portConstraint=eastwest;whiteSpace=wrap;html=1;perimeterSpacing=8;" vertex="1" parent="FwHrozTbba6VwooJ7MBG-31">
          <mxGeometry y="388" width="290" height="26" as="geometry" />
        </mxCell>
        <mxCell id="FwHrozTbba6VwooJ7MBG-49" value="asset" style="swimlane;fontStyle=0;childLayout=stackLayout;horizontal=1;startSize=26;fillColor=none;horizontalStack=0;resizeParent=1;resizeParentMax=0;resizeLast=0;collapsible=1;marginBottom=0;whiteSpace=wrap;html=1;swimlaneLine=1;" vertex="1" parent="1">
          <mxGeometry x="-740" y="570" width="250" height="320" as="geometry">
            <mxRectangle x="120" y="80" width="60" height="30" as="alternateBounds" />
          </mxGeometry>
        </mxCell>
        <mxCell id="FwHrozTbba6VwooJ7MBG-50" value="- name: str   &#xa;" style="text;strokeColor=none;fillColor=none;align=left;verticalAlign=top;spacingLeft=4;spacingRight=4;overflow=hidden;rotatable=0;points=[[0,0.5],[1,0.5]];portConstraint=eastwest;whiteSpace=wrap;html=1;" vertex="1" parent="FwHrozTbba6VwooJ7MBG-49">
          <mxGeometry y="26" width="250" height="26" as="geometry" />
        </mxCell>
        <mxCell id="FwHrozTbba6VwooJ7MBG-51" value="- blue_badge: str" style="text;strokeColor=none;fillColor=none;align=left;verticalAlign=top;spacingLeft=4;spacingRight=4;overflow=hidden;rotatable=0;points=[[0,0.5],[1,0.5]];portConstraint=eastwest;whiteSpace=wrap;html=1;perimeterSpacing=8;" vertex="1" parent="FwHrozTbba6VwooJ7MBG-49">
          <mxGeometry y="52" width="250" height="26" as="geometry" />
        </mxCell>
        <mxCell id="FwHrozTbba6VwooJ7MBG-61" value="- device_type: str" style="text;strokeColor=none;fillColor=none;align=left;verticalAlign=top;spacingLeft=4;spacingRight=4;overflow=hidden;rotatable=0;points=[[0,0.5],[1,0.5]];portConstraint=eastwest;whiteSpace=wrap;html=1;perimeterSpacing=8;" vertex="1" parent="FwHrozTbba6VwooJ7MBG-49">
          <mxGeometry y="78" width="250" height="26" as="geometry" />
        </mxCell>
        <mxCell id="FwHrozTbba6VwooJ7MBG-60" value="- description: str" style="text;strokeColor=none;fillColor=none;align=left;verticalAlign=top;spacingLeft=4;spacingRight=4;overflow=hidden;rotatable=0;points=[[0,0.5],[1,0.5]];portConstraint=eastwest;whiteSpace=wrap;html=1;perimeterSpacing=8;" vertex="1" parent="FwHrozTbba6VwooJ7MBG-49">
          <mxGeometry y="104" width="250" height="26" as="geometry" />
        </mxCell>
        <mxCell id="FwHrozTbba6VwooJ7MBG-59" value="- department: str" style="text;strokeColor=none;fillColor=none;align=left;verticalAlign=top;spacingLeft=4;spacingRight=4;overflow=hidden;rotatable=0;points=[[0,0.5],[1,0.5]];portConstraint=eastwest;whiteSpace=wrap;html=1;perimeterSpacing=8;" vertex="1" parent="FwHrozTbba6VwooJ7MBG-49">
          <mxGeometry y="130" width="250" height="26" as="geometry" />
        </mxCell>
        <mxCell id="FwHrozTbba6VwooJ7MBG-58" value="- room_number: str" style="text;strokeColor=none;fillColor=none;align=left;verticalAlign=top;spacingLeft=4;spacingRight=4;overflow=hidden;rotatable=0;points=[[0,0.5],[1,0.5]];portConstraint=eastwest;whiteSpace=wrap;html=1;perimeterSpacing=8;" vertex="1" parent="FwHrozTbba6VwooJ7MBG-49">
          <mxGeometry y="156" width="250" height="26" as="geometry" />
        </mxCell>
        <mxCell id="FwHrozTbba6VwooJ7MBG-57" value="- notes: str  " style="text;strokeColor=none;fillColor=none;align=left;verticalAlign=top;spacingLeft=4;spacingRight=4;overflow=hidden;rotatable=0;points=[[0,0.5],[1,0.5]];portConstraint=eastwest;whiteSpace=wrap;html=1;perimeterSpacing=8;" vertex="1" parent="FwHrozTbba6VwooJ7MBG-49">
          <mxGeometry y="182" width="250" height="26" as="geometry" />
        </mxCell>
        <mxCell id="FwHrozTbba6VwooJ7MBG-56" value="- date_added: str" style="text;strokeColor=none;fillColor=none;align=left;verticalAlign=top;spacingLeft=4;spacingRight=4;overflow=hidden;rotatable=0;points=[[0,0.5],[1,0.5]];portConstraint=eastwest;whiteSpace=wrap;html=1;perimeterSpacing=8;" vertex="1" parent="FwHrozTbba6VwooJ7MBG-49">
          <mxGeometry y="208" width="250" height="26" as="geometry" />
        </mxCell>
        <mxCell id="FwHrozTbba6VwooJ7MBG-52" value="" style="line;strokeWidth=1;fillColor=none;align=left;verticalAlign=middle;spacingTop=-1;spacingLeft=3;spacingRight=3;rotatable=0;labelPosition=right;points=[];portConstraint=eastwest;strokeColor=inherit;" vertex="1" parent="FwHrozTbba6VwooJ7MBG-49">
          <mxGeometry y="234" width="250" height="8" as="geometry" />
        </mxCell>
        <mxCell id="FwHrozTbba6VwooJ7MBG-53" value="+ __init__(name: str, blue_badge: str, device_type: str, description: str, department: str, room_number: str, notes: str, date_added: str)&amp;nbsp;" style="text;strokeColor=none;fillColor=none;align=left;verticalAlign=top;spacingLeft=4;spacingRight=4;overflow=hidden;rotatable=0;points=[[0,0.5],[1,0.5]];portConstraint=eastwest;whiteSpace=wrap;html=1;glass=0;rounded=0;" vertex="1" parent="FwHrozTbba6VwooJ7MBG-49">
          <mxGeometry y="242" width="250" height="78" as="geometry" />
        </mxCell>
        <mxCell id="FwHrozTbba6VwooJ7MBG-62" value="asset_manager" style="swimlane;fontStyle=0;childLayout=stackLayout;horizontal=1;startSize=26;fillColor=none;horizontalStack=0;resizeParent=1;resizeParentMax=0;resizeLast=0;collapsible=1;marginBottom=0;whiteSpace=wrap;html=1;swimlaneLine=1;" vertex="1" parent="1">
          <mxGeometry x="-737" y="190" width="250" height="264" as="geometry">
            <mxRectangle x="120" y="80" width="60" height="30" as="alternateBounds" />
          </mxGeometry>
        </mxCell>
        <mxCell id="FwHrozTbba6VwooJ7MBG-63" value="- hardcoded_assets: List[Tuple[str, str, str, str, str, str, str, str]] " style="text;strokeColor=none;fillColor=none;align=left;verticalAlign=top;spacingLeft=4;spacingRight=4;overflow=hidden;rotatable=0;points=[[0,0.5],[1,0.5]];portConstraint=eastwest;whiteSpace=wrap;html=1;" vertex="1" parent="FwHrozTbba6VwooJ7MBG-62">
          <mxGeometry y="26" width="250" height="44" as="geometry" />
        </mxCell>
        <mxCell id="FwHrozTbba6VwooJ7MBG-66" value="- assets: List[asset]" style="text;strokeColor=none;fillColor=none;align=left;verticalAlign=top;spacingLeft=4;spacingRight=4;overflow=hidden;rotatable=0;points=[[0,0.5],[1,0.5]];portConstraint=eastwest;whiteSpace=wrap;html=1;perimeterSpacing=8;" vertex="1" parent="FwHrozTbba6VwooJ7MBG-62">
          <mxGeometry y="70" width="250" height="26" as="geometry" />
        </mxCell>
        <mxCell id="FwHrozTbba6VwooJ7MBG-69" value="- errors: List[str]" style="text;strokeColor=none;fillColor=none;align=left;verticalAlign=top;spacingLeft=4;spacingRight=4;overflow=hidden;rotatable=0;points=[[0,0.5],[1,0.5]];portConstraint=eastwest;whiteSpace=wrap;html=1;perimeterSpacing=8;" vertex="1" parent="FwHrozTbba6VwooJ7MBG-62">
          <mxGeometry y="96" width="250" height="26" as="geometry" />
        </mxCell>
        <mxCell id="FwHrozTbba6VwooJ7MBG-70" value="- errored_assets: List[asset]" style="text;strokeColor=none;fillColor=none;align=left;verticalAlign=top;spacingLeft=4;spacingRight=4;overflow=hidden;rotatable=0;points=[[0,0.5],[1,0.5]];portConstraint=eastwest;whiteSpace=wrap;html=1;perimeterSpacing=8;" vertex="1" parent="FwHrozTbba6VwooJ7MBG-62">
          <mxGeometry y="122" width="250" height="26" as="geometry" />
        </mxCell>
        <mxCell id="FwHrozTbba6VwooJ7MBG-71" value="" style="line;strokeWidth=1;fillColor=none;align=left;verticalAlign=middle;spacingTop=-1;spacingLeft=3;spacingRight=3;rotatable=0;labelPosition=right;points=[];portConstraint=eastwest;strokeColor=inherit;" vertex="1" parent="FwHrozTbba6VwooJ7MBG-62">
          <mxGeometry y="148" width="250" height="8" as="geometry" />
        </mxCell>
        <mxCell id="FwHrozTbba6VwooJ7MBG-72" value="+ __init__()" style="text;strokeColor=none;fillColor=none;align=left;verticalAlign=top;spacingLeft=4;spacingRight=4;overflow=hidden;rotatable=0;points=[[0,0.5],[1,0.5]];portConstraint=eastwest;whiteSpace=wrap;html=1;glass=0;rounded=0;" vertex="1" parent="FwHrozTbba6VwooJ7MBG-62">
          <mxGeometry y="156" width="250" height="28" as="geometry" />
        </mxCell>
        <mxCell id="FwHrozTbba6VwooJ7MBG-73" value="+ validate_asset_data(name: str, blue_badge: str, device_type: str, description: str, department: str, room_number: str, notes: str, date_added: str)" style="text;strokeColor=none;fillColor=none;align=left;verticalAlign=top;spacingLeft=4;spacingRight=4;overflow=hidden;rotatable=0;points=[[0,0.5],[1,0.5]];portConstraint=eastwest;whiteSpace=wrap;html=1;glass=0;rounded=0;" vertex="1" parent="FwHrozTbba6VwooJ7MBG-62">
          <mxGeometry y="184" width="250" height="80" as="geometry" />
        </mxCell>
        <mxCell id="FwHrozTbba6VwooJ7MBG-76" value="asset_register" style="swimlane;fontStyle=0;childLayout=stackLayout;horizontal=1;startSize=26;fillColor=none;horizontalStack=0;resizeParent=1;resizeParentMax=0;resizeLast=0;collapsible=1;marginBottom=0;whiteSpace=wrap;html=1;swimlaneLine=1;" vertex="1" parent="1">
          <mxGeometry x="-60" y="250" width="250" height="410" as="geometry">
            <mxRectangle x="120" y="80" width="60" height="30" as="alternateBounds" />
          </mxGeometry>
        </mxCell>
        <mxCell id="FwHrozTbba6VwooJ7MBG-87" value="- asset_manager: asset_manager" style="text;strokeColor=none;fillColor=none;align=left;verticalAlign=top;spacingLeft=4;spacingRight=4;overflow=hidden;rotatable=0;points=[[0,0.5],[1,0.5]];portConstraint=eastwest;whiteSpace=wrap;html=1;perimeterSpacing=8;" vertex="1" parent="FwHrozTbba6VwooJ7MBG-76">
          <mxGeometry y="26" width="250" height="26" as="geometry" />
        </mxCell>
        <mxCell id="FwHrozTbba6VwooJ7MBG-88" value="- assets: List[asset]" style="text;strokeColor=none;fillColor=none;align=left;verticalAlign=top;spacingLeft=4;spacingRight=4;overflow=hidden;rotatable=0;points=[[0,0.5],[1,0.5]];portConstraint=eastwest;whiteSpace=wrap;html=1;perimeterSpacing=8;" vertex="1" parent="FwHrozTbba6VwooJ7MBG-76">
          <mxGeometry y="52" width="250" height="26" as="geometry" />
        </mxCell>
        <mxCell id="FwHrozTbba6VwooJ7MBG-89" value="- errors: List[str" style="text;strokeColor=none;fillColor=none;align=left;verticalAlign=top;spacingLeft=4;spacingRight=4;overflow=hidden;rotatable=0;points=[[0,0.5],[1,0.5]];portConstraint=eastwest;whiteSpace=wrap;html=1;perimeterSpacing=8;" vertex="1" parent="FwHrozTbba6VwooJ7MBG-76">
          <mxGeometry y="78" width="250" height="26" as="geometry" />
        </mxCell>
        <mxCell id="FwHrozTbba6VwooJ7MBG-81" value="- errored_assets: List[asset]" style="text;strokeColor=none;fillColor=none;align=left;verticalAlign=top;spacingLeft=4;spacingRight=4;overflow=hidden;rotatable=0;points=[[0,0.5],[1,0.5]];portConstraint=eastwest;whiteSpace=wrap;html=1;perimeterSpacing=8;" vertex="1" parent="FwHrozTbba6VwooJ7MBG-76">
          <mxGeometry y="104" width="250" height="26" as="geometry" />
        </mxCell>
        <mxCell id="FwHrozTbba6VwooJ7MBG-85" value="" style="line;strokeWidth=1;fillColor=none;align=left;verticalAlign=middle;spacingTop=-1;spacingLeft=3;spacingRight=3;rotatable=0;labelPosition=right;points=[];portConstraint=eastwest;strokeColor=inherit;" vertex="1" parent="FwHrozTbba6VwooJ7MBG-76">
          <mxGeometry y="130" width="250" height="8" as="geometry" />
        </mxCell>
        <mxCell id="FwHrozTbba6VwooJ7MBG-86" value="+ __init__() " style="text;strokeColor=none;fillColor=none;align=left;verticalAlign=top;spacingLeft=4;spacingRight=4;overflow=hidden;rotatable=0;points=[[0,0.5],[1,0.5]];portConstraint=eastwest;whiteSpace=wrap;html=1;glass=0;rounded=0;" vertex="1" parent="FwHrozTbba6VwooJ7MBG-76">
          <mxGeometry y="138" width="250" height="32" as="geometry" />
        </mxCell>
        <mxCell id="FwHrozTbba6VwooJ7MBG-97" value="+ add_asset()" style="text;strokeColor=none;fillColor=none;align=left;verticalAlign=top;spacingLeft=4;spacingRight=4;overflow=hidden;rotatable=0;points=[[0,0.5],[1,0.5]];portConstraint=eastwest;whiteSpace=wrap;html=1;glass=0;rounded=0;" vertex="1" parent="FwHrozTbba6VwooJ7MBG-76">
          <mxGeometry y="170" width="250" height="30" as="geometry" />
        </mxCell>
        <mxCell id="FwHrozTbba6VwooJ7MBG-96" value="+ remove_asset()" style="text;strokeColor=none;fillColor=none;align=left;verticalAlign=top;spacingLeft=4;spacingRight=4;overflow=hidden;rotatable=0;points=[[0,0.5],[1,0.5]];portConstraint=eastwest;whiteSpace=wrap;html=1;glass=0;rounded=0;" vertex="1" parent="FwHrozTbba6VwooJ7MBG-76">
          <mxGeometry y="200" width="250" height="30" as="geometry" />
        </mxCell>
        <mxCell id="FwHrozTbba6VwooJ7MBG-95" value="+ update_asset()" style="text;strokeColor=none;fillColor=none;align=left;verticalAlign=top;spacingLeft=4;spacingRight=4;overflow=hidden;rotatable=0;points=[[0,0.5],[1,0.5]];portConstraint=eastwest;whiteSpace=wrap;html=1;glass=0;rounded=0;" vertex="1" parent="FwHrozTbba6VwooJ7MBG-76">
          <mxGeometry y="230" width="250" height="30" as="geometry" />
        </mxCell>
        <mxCell id="FwHrozTbba6VwooJ7MBG-98" value="+ display_assets()" style="text;strokeColor=none;fillColor=none;align=left;verticalAlign=top;spacingLeft=4;spacingRight=4;overflow=hidden;rotatable=0;points=[[0,0.5],[1,0.5]];portConstraint=eastwest;whiteSpace=wrap;html=1;glass=0;rounded=0;" vertex="1" parent="FwHrozTbba6VwooJ7MBG-76">
          <mxGeometry y="260" width="250" height="30" as="geometry" />
        </mxCell>
        <mxCell id="FwHrozTbba6VwooJ7MBG-99" value="+ display_errors()" style="text;strokeColor=none;fillColor=none;align=left;verticalAlign=top;spacingLeft=4;spacingRight=4;overflow=hidden;rotatable=0;points=[[0,0.5],[1,0.5]];portConstraint=eastwest;whiteSpace=wrap;html=1;glass=0;rounded=0;" vertex="1" parent="FwHrozTbba6VwooJ7MBG-76">
          <mxGeometry y="290" width="250" height="30" as="geometry" />
        </mxCell>
        <mxCell id="FwHrozTbba6VwooJ7MBG-100" value=" + search_assets()" style="text;strokeColor=none;fillColor=none;align=left;verticalAlign=top;spacingLeft=4;spacingRight=4;overflow=hidden;rotatable=0;points=[[0,0.5],[1,0.5]];portConstraint=eastwest;whiteSpace=wrap;html=1;glass=0;rounded=0;" vertex="1" parent="FwHrozTbba6VwooJ7MBG-76">
          <mxGeometry y="320" width="250" height="30" as="geometry" />
        </mxCell>
        <mxCell id="FwHrozTbba6VwooJ7MBG-101" value=" + admin_all_remove()" style="text;strokeColor=none;fillColor=none;align=left;verticalAlign=top;spacingLeft=4;spacingRight=4;overflow=hidden;rotatable=0;points=[[0,0.5],[1,0.5]];portConstraint=eastwest;whiteSpace=wrap;html=1;glass=0;rounded=0;" vertex="1" parent="FwHrozTbba6VwooJ7MBG-76">
          <mxGeometry y="350" width="250" height="30" as="geometry" />
        </mxCell>
        <mxCell id="FwHrozTbba6VwooJ7MBG-102" value="+ admin()  " style="text;strokeColor=none;fillColor=none;align=left;verticalAlign=top;spacingLeft=4;spacingRight=4;overflow=hidden;rotatable=0;points=[[0,0.5],[1,0.5]];portConstraint=eastwest;whiteSpace=wrap;html=1;glass=0;rounded=0;" vertex="1" parent="FwHrozTbba6VwooJ7MBG-76">
          <mxGeometry y="380" width="250" height="30" as="geometry" />
        </mxCell>
        <mxCell id="FwHrozTbba6VwooJ7MBG-103" value="main" style="swimlane;fontStyle=0;childLayout=stackLayout;horizontal=1;startSize=26;fillColor=none;horizontalStack=0;resizeParent=1;resizeParentMax=0;resizeLast=0;collapsible=1;marginBottom=0;whiteSpace=wrap;html=1;swimlaneLine=1;" vertex="1" parent="1">
          <mxGeometry x="220" y="590" width="250" height="64" as="geometry">
            <mxRectangle x="120" y="80" width="60" height="30" as="alternateBounds" />
          </mxGeometry>
        </mxCell>
        <mxCell id="FwHrozTbba6VwooJ7MBG-108" value="" style="line;strokeWidth=1;fillColor=none;align=left;verticalAlign=middle;spacingTop=-1;spacingLeft=3;spacingRight=3;rotatable=0;labelPosition=right;points=[];portConstraint=eastwest;strokeColor=inherit;" vertex="1" parent="FwHrozTbba6VwooJ7MBG-103">
          <mxGeometry y="26" width="250" height="8" as="geometry" />
        </mxCell>
        <mxCell id="FwHrozTbba6VwooJ7MBG-117" value="+ main() " style="text;strokeColor=none;fillColor=none;align=left;verticalAlign=top;spacingLeft=4;spacingRight=4;overflow=hidden;rotatable=0;points=[[0,0.5],[1,0.5]];portConstraint=eastwest;whiteSpace=wrap;html=1;glass=0;rounded=0;" vertex="1" parent="FwHrozTbba6VwooJ7MBG-103">
          <mxGeometry y="34" width="250" height="30" as="geometry" />
        </mxCell>
        <mxCell id="FwHrozTbba6VwooJ7MBG-123" value="1" style="endArrow=open;html=1;endSize=12;startArrow=diamondThin;startSize=14;startFill=0;edgeStyle=orthogonalEdgeStyle;align=left;verticalAlign=bottom;rounded=0;exitX=0.52;exitY=0.988;exitDx=0;exitDy=0;exitPerimeter=0;entryX=0.532;entryY=0;entryDx=0;entryDy=0;entryPerimeter=0;" edge="1" parent="1" source="FwHrozTbba6VwooJ7MBG-73" target="FwHrozTbba6VwooJ7MBG-49">
          <mxGeometry x="-1" y="3" relative="1" as="geometry">
            <mxPoint x="-660" y="510" as="sourcePoint" />
            <mxPoint x="-500" y="510" as="targetPoint" />
          </mxGeometry>
        </mxCell>
      </root>
    </mxGraphModel>
  </diagram>
</mxfile>
